<svg aria-hidden="true" style="width:0;height:0;position:absolute;overflow:hidden" xmlns="http://www.w3.org/2000/svg"><defs><symbol id="icon-phone" viewBox="0 0 32 32"><path d="M22 20c-2 2-2 4-4 4s-4-2-6-4-4-4-4-6 2-2 4-4-4-8-6-8-6 6-6 6c0 4 4.109 12.109 8 16s12 8 16 8c0 0 6-4 6-6s-6-8-8-6z"/></symbol><symbol id="icon-envelop" viewBox="0 0 32 32"><path d="M29 4H3C1.35 4 0 5.35 0 7v20c0 1.65 1.35 3 3 3h26c1.65 0 3-1.35 3-3V7c0-1.65-1.35-3-3-3zM12.461 17.199 4 23.789V8.113l8.461 9.086zM5.512 8h20.976L16 15.875 5.512 8zm7.278 9.553L16 21l3.21-3.447L25.79 26H6.211l6.58-8.447zm6.749-.354L28 8.113v15.676l-8.461-6.59z"/></symbol><symbol id="icon-location" viewBox="0 0 32 32"><path d="M16 0C10.477 0 6 4.477 6 10c0 10 10 22 10 22s10-12 10-22c0-5.523-4.477-10-10-10zm0 16.125a6.125 6.125 0 1 1 0-12.25 6.125 6.125 0 0 1 0 12.25zM12.125 10a3.875 3.875 0 1 1 7.75 0 3.875 3.875 0 0 1-7.75 0z"/></symbol><symbol id="icon-clock" viewBox="0 0 32 32"><path d="M20.586 23.414 14 16.828V8h4v7.172l5.414 5.414zM16 0C7.163 0 0 7.163 0 16s7.163 16 16 16 16-7.163 16-16S24.837 0 16 0zm0 28C9.373 28 4 22.627 4 16S9.373 4 16 4s12 5.373 12 12-5.373 12-12 12z"/></symbol><symbol id="icon-logo" viewBox="0 0 28 32"><path stroke="#4e4e4e" stroke-miterlimit="10" stroke-width=".666" d="M14.036 8.105c0-3.278 2.097-6.235 5.232-7.198C20.332.58 21.451.442 22.513.682c3.171.715 4.95 3.872 4.996 12.581.047 8.748-3.102 14.191-6.097 17.824-.874 1.071-4.061-3.572-4.779-7.042a2.52 2.52 0 0 1 .588-2.165l.03-.033c.235-.269.556-.449.909-.508 1.134-.185 2.486.328 2.635-.192.37-1.297.893-2.731.758-2.787-.748-.311-1.347-.723-1.305-1.017s.626-.175 1.352-.349c.514-.11.185-1.16.414-2.018.197-.746 1.223-.854 1.211-1.365 0-.322-2.775 0-4.164-7.339-.054-.29-4.337.809-5.026 5.3"/><path stroke="#4e4e4e" stroke-miterlimit="10" stroke-width=".666" d="M14.036 15.138V8.105c0-3.278-2.097-6.235-5.233-7.198C7.739.58 6.62.442 5.56.682 2.387 1.397.583 4.554.562 13.263c-.023 8.926 3.019 14.262 6.097 17.824 1.013 1.174 5.704-7.234 5.726-11.807 0-1.478-.952-1.747-1.204-2.621-.425-1.473.059-2.986.914-3.056.681-.056 1.676 1.159 1.941 1.536zm0 0c-.001.008-.005.016-.011.022s.011-.619.011-.619"/><path d="M14.104 7.726s-1.519-3.389-3.931-3.491c-4.908-.21-6.357 7.405-5.845 9.473.954 3.841 3.617 4.232 2.743 4.655-2.39 1.155-1.664 4.461.349 5.417 2.535 1.209 4.282-1.313 4.498-1.638"/></symbol><symbol id="icon-facebook" viewBox="0 0 32 32"><path d="M32 16.097c0-8.836-7.164-16-16-16s-16 7.164-16 16c0 7.987 5.851 14.605 13.5 15.805v-11.18H9.437v-4.627H13.5v-3.523c0-4.009 2.389-6.225 6.044-6.225 1.749 0 3.581.313 3.581.313v3.937h-2.019c-1.988 0-2.608 1.233-2.608 2.499v3h4.437l-.709 4.627h-3.728v11.18c7.651-1.201 13.501-7.821 13.501-15.807z"/></symbol><symbol id="icon-viber" viewBox="0 0 32 32"><path d="M15.2 0C12.631.037 7.111.459 4.027 3.289 1.736 5.582.928 8.933.844 13.089.76 17.244.651 25.034 8.16 27.146h.004l-.005 3.221s-.049 1.303.813 1.569c1.036.323 1.645-.667 2.64-1.736a83.153 83.153 0 0 0 1.863-2.107c5.133.435 9.083-.555 9.533-.7 1.035-.336 6.901-1.088 7.856-8.876.987-8.027-.48-13.107-3.12-15.395-.795-.733-4.008-3.067-11.167-3.097 0 0-.527-.033-1.383-.023zm.077 2.257c.727-.005 1.173.023 1.173.023 6.056.027 8.956 1.851 9.629 2.461 2.233 1.913 3.373 6.491 2.541 13.196v.003c-.805 6.504-5.565 6.912-6.443 7.193-.373.12-3.843.983-8.204.699 0 0-3.248 3.92-4.263 4.939-.16.16-.347.223-.469.192-.173-.044-.221-.251-.22-.552l.027-5.357c-6.349-1.76-5.98-8.389-5.907-11.86.072-3.472.724-6.317 2.661-8.231 2.613-2.364 7.299-2.691 9.48-2.707zm.507 3.47a.405.405 0 0 0-.005.81c2.165.013 3.928.716 5.371 2.123 1.431 1.395 2.16 3.291 2.177 5.779.003.223.187.4.409.4a.406.406 0 0 0 .4-.405c-.019-2.645-.824-4.795-2.421-6.352-1.587-1.547-3.589-2.337-5.929-2.353zm-5.28.926c-.253-.043-.533.007-.821.156l-.013.003a6.142 6.142 0 0 0-1.528 1.243c-.003.005-.008.005-.011.011-.356.431-.56.851-.613 1.264a.778.778 0 0 0-.009.187c0 .181.029.36.087.533l.017.013c.18.64.631 1.701 1.607 3.472.56 1.024 1.204 2 1.928 2.915.36.459.747.897 1.16 1.312l.176.176c.413.411.853.8 1.312 1.16a20.72 20.72 0 0 0 2.915 1.929c1.771.977 2.835 1.427 3.472 1.608l.013.019c.173.056.353.085.536.084.061.003.123 0 .184-.011.413-.048.836-.253 1.264-.613.005 0 .004-.003.011-.007.493-.44.911-.96 1.24-1.531l.004-.013c.3-.576.2-1.123-.24-1.493-.005 0-.931-.773-1.383-1.107-.48-.34-.973-.656-1.484-.947-.68-.38-1.376-.141-1.664.232l-.596.752c-.307.377-.876.328-.876.328-4.16-1.061-5.273-5.273-5.273-5.273s-.049-.568.331-.875l.751-.597c.369-.287.608-.983.227-1.664a16.75 16.75 0 0 0-.947-1.487 37.184 37.184 0 0 0-1.107-1.38 1.098 1.098 0 0 0-.669-.396zm5.987 1.174a.404.404 0 0 0-.024.808c1.547.113 2.689.621 3.527 1.533.84.917 1.24 2.032 1.208 3.427a.407.407 0 0 0 .813.017c.033-1.567-.445-2.924-1.423-3.992-.987-1.08-2.369-1.671-4.067-1.795h-.032zM17.108 10a.406.406 0 0 0-.4.383.409.409 0 0 0 .384.427c.697.037 1.167.233 1.484.563.32.327.517.827.555 1.552a.404.404 0 0 0 .807-.04c-.04-.859-.287-1.571-.773-2.076-.489-.504-1.191-.765-2.027-.809h-.024z"/></symbol><symbol id="icon-instagram" viewBox="0 0 32 32"><path d="M26.461 7.459a1.931 1.931 0 0 1-.562 1.358 1.913 1.913 0 0 1-1.358.562 1.931 1.931 0 0 1-1.358-.562 1.913 1.913 0 0 1-.562-1.358 1.921 1.921 0 1 1 3.84 0zM16 21.333a5.334 5.334 0 1 1 0-10.668 5.334 5.334 0 0 1 0 10.668zm0-13.549a8.214 8.214 0 0 0-5.81 14.026 8.214 8.214 0 0 0 11.62 0 8.214 8.214 0 0 0 0-11.62A8.214 8.214 0 0 0 16 7.784zm0-4.901c4.272 0 4.778.016 6.464.093 1.562.072 2.408.331 2.973.552.746.288 1.28.637 1.84 1.197s.906 1.093 1.197 1.84c.218.563.48 1.41.55 2.97.077 1.688.093 2.194.093 6.466s-.016 4.779-.093 6.466c-.07 1.56-.331 2.408-.55 2.971-.291.747-.637 1.28-1.197 1.84s-1.094.906-1.84 1.197c-.565.219-1.411.48-2.971.55-1.688.077-2.192.094-6.466.094-4.272 0-4.779-.016-6.464-.094-1.562-.07-2.41-.331-2.973-.55a4.944 4.944 0 0 1-1.84-1.197 4.969 4.969 0 0 1-1.197-1.84c-.219-.563-.48-1.411-.55-2.971-.077-1.686-.093-2.192-.093-6.464s.016-4.779.093-6.467c.07-1.56.331-2.406.55-2.971.291-.746.637-1.28 1.197-1.84s1.093-.906 1.84-1.197c.563-.218 1.411-.48 2.971-.55 1.688-.077 2.192-.093 6.466-.093zM16 0c-4.346 0-4.89.019-6.597.096C7.701.174 6.537.445 5.52.84a7.83 7.83 0 0 0-2.835 1.845A7.852 7.852 0 0 0 .84 5.52C.445 6.538.174 7.701.096 9.403.019 11.11 0 11.654 0 16s.019 4.89.096 6.597c.078 1.702.349 2.866.744 3.883a7.83 7.83 0 0 0 1.845 2.835A7.852 7.852 0 0 0 5.52 31.16c1.018.395 2.181.666 3.883.744C11.11 31.981 11.654 32 16 32s4.89-.019 6.597-.096c1.702-.078 2.866-.349 3.883-.744a7.83 7.83 0 0 0 2.835-1.845 7.852 7.852 0 0 0 1.845-2.835c.395-1.018.666-2.181.744-3.883C31.981 20.89 32 20.346 32 16s-.019-4.89-.096-6.597c-.078-1.702-.349-2.866-.744-3.883a7.83 7.83 0 0 0-1.845-2.835A7.852 7.852 0 0 0 26.48.84C25.462.445 24.299.174 22.597.096 20.89.019 20.346 0 16 0z"/></symbol><symbol id="icon-telegram" viewBox="0 0 32 32"><path d="M16 0C7.162 0 0 7.162 0 16s7.162 16 16 16 16-7.163 16-16S24.837 0 16 0zm7.863 10.969-2.625 12.369c-.181.881-.712 1.087-1.45.681l-4-2.956-1.919 1.869c-.225.219-.4.4-.8.4-.519 0-.431-.194-.606-.688L11.1 18.169l-3.956-1.231c-.856-.262-.862-.85.194-1.269l15.412-5.95c.7-.319 1.381.169 1.113 1.25z"/></symbol><symbol id="icon-star" viewBox="0 0 32 32"><path d="m13.764.009 2.978 11.217 6.807-9.399-4.184 10.825 11.032-3.603-9.748 6.298 11.043 3.57-11.588-.634 6.836 9.379-9.002-7.324.017 11.605-2.978-11.217-6.807 9.399L12.354 19.3 1.322 22.903l9.748-6.298-11.043-3.57 11.588.634L4.779 4.29l9.002 7.324L13.763.009z"/></symbol><symbol id="icon-menu" viewBox="0 0 32 32"><path d="M6.4 11.734V9.6h19.2v2.134H6.4zm0 5.332h19.2v-2.133H6.4v2.133zm0 5.334h19.2v-2.134H6.4V22.4z"/></symbol><symbol id="icon-close" viewBox="0 0 32 32"><path d="M32 3.223 28.777 0 16 12.777 3.223 0 0 3.223 12.777 16 0 28.777 3.223 32 16 19.223 28.777 32 32 28.777 19.223 16 32 3.223z"/></symbol><symbol id="icon-phone-hang-up" viewBox="0 0 32 32"><path d="M31.793 18c.25 1.734.413 4.106-.364 5.014-1.286 1.501-9.428 1.501-9.428-1.501 0-1.512 1.339-2.504.053-4.006-1.265-1.477-3.532-1.501-6.054-1.501s-4.789.024-6.054 1.501C8.66 19.008 10 20 10 21.513c0 3.003-8.143 3.003-9.429 1.501-.777-.908-.615-3.28-.364-5.014.193-1.157.679-2.406 2.236-4 2.336-2.179 5.87-3.961 13.432-3.999V10h.25v.001c7.562.038 11.096 1.82 13.432 3.999 1.557 1.594 2.043 2.842 2.236 4z"/></symbol></defs></svg>