<svg version="1.0" xmlns="http://www.w3.org/2000/svg" width="682.667" height="682.667" viewBox="0 0 512 512"><path d="M74.2 4.2C70 5.3 68.1 8 62 21.7c-2.9 6.5-6.6 14.7-8.3 18.3-1.6 3.6-3.6 8-4.3 9.7L48 53H30.8C11.2 53 7.5 54 3 60.7L.5 64.4V129c0 72.1-.5 66.8 7.1 72.6 3 2.3 5 2.9 11.3 3.4l7.6.5v120c0 66-.1 120.7-.3 121.6-.2.9-2.2 2.2-4.5 2.9C12.8 452.6 5 460.4 2 469.5c-.9 2.5-1.3 8.8-1.3 17.1 0 14.2.7 16.4 6.1 20.1 2.6 1.7 13.2 1.8 249.3 1.8h246.6l3.6-2.8c4.5-3.4 5.1-6.1 5-22-.1-11.2-.3-12.3-3.3-18.3-3.6-7.3-9-12.2-16.5-15-2.7-1-5.2-2.1-5.5-2.5-.4-.6-.5-239.6-.1-242.2 0-.4 2.4-.7 5.2-.7 2.9 0 6.9-.5 9.1-1.2 5.4-1.6 10.5-7.5 11.3-13 .3-2.4.5-31.8.3-65.4l-.3-61-2.5-3.7c-4.5-6.7-8.2-7.7-27.7-7.7h-17.2l-2.6-5.8c-1.4-3.1-5.6-12.5-9.3-20.7C445 10.2 443 6.6 439.7 4.8c-1.7-1-42.3-1.3-182.3-1.3-99.1 0-181.5.3-183.2.7z"/></svg>