<?xml version="1.0" standalone="no"?>
<!DOCTYPE svg PUBLIC "-//W3C//DTD SVG 20010904//EN"
 "http://www.w3.org/TR/2001/REC-SVG-20010904/DTD/svg10.dtd">
<svg version="1.0" xmlns="http://www.w3.org/2000/svg"
 width="512.000000pt" height="512.000000pt" viewBox="0 0 512.000000 512.000000"
 preserveAspectRatio="xMidYMid meet">
<metadata>
Created by potrace 1.14, written by Peter Selinger 2001-2017
</metadata>
<g transform="translate(0.000000,512.000000) scale(0.100000,-0.100000)"
fill="#000000" stroke="none">
<path d="M742 5078 c-42 -11 -61 -38 -122 -175 -29 -65 -66 -147 -83 -183 -16
-36 -36 -80 -43 -97 l-14 -33 -172 0 c-196 0 -233 -10 -278 -77 l-25 -37 0
-646 c0 -721 -5 -668 71 -726 30 -23 50 -29 113 -34 l76 -5 0 -1200 c0 -660
-1 -1207 -3 -1216 -2 -9 -22 -22 -45 -29 -89 -26 -167 -104 -197 -195 -9 -25
-13 -88 -13 -171 0 -142 7 -164 61 -201 26 -17 132 -18 2493 -18 l2466 0 36
28 c45 34 51 61 50 220 -1 112 -3 123 -33 183 -36 73 -90 122 -165 150 -27 10
-52 21 -55 25 -4 6 -5 2396 -1 2422 0 4 24 7 52 7 29 0 69 5 91 12 54 16 105
75 113 130 3 24 5 318 3 654 l-3 610 -25 37 c-45 67 -82 77 -277 77 l-172 0
-26 58 c-14 31 -56 125 -93 207 -72 163 -92 199 -125 217 -17 10 -423 13
-1823 13 -991 0 -1815 -3 -1832 -7z"/>
</g>
</svg>
