<svg aria-hidden="true" style="position: absolute; width: 0; height: 0; overflow: hidden;" version="1.1" xmlns="http://www.w3.org/2000/svg" xmlns:xlink="http://www.w3.org/1999/xlink">
<defs>
<symbol id="icon-logo" viewBox="0 0 28 32">
<path  stroke="#4e4e4e" stroke-linecap="butt" stroke-miterlimit="10" stroke-width="0.6662" d="M14.036 8.105c0-3.278 2.097-6.235 5.232-7.198 1.064-0.327 2.183-0.465 3.245-0.225 3.171 0.715 4.95 3.872 4.996 12.581 0.047 8.748-3.102 14.191-6.097 17.824-0.874 1.071-4.061-3.572-4.779-7.042-0.076-0.382-0.063-0.776 0.039-1.152s0.29-0.723 0.549-1.013l0.030-0.033c0.235-0.269 0.556-0.449 0.909-0.508 1.134-0.185 2.486 0.328 2.635-0.192 0.37-1.297 0.893-2.731 0.758-2.787-0.748-0.311-1.347-0.723-1.305-1.017s0.626-0.175 1.352-0.349c0.514-0.11 0.185-1.16 0.414-2.018 0.197-0.746 1.223-0.854 1.211-1.365 0-0.322-2.775 0-4.164-7.339-0.054-0.29-4.337 0.809-5.026 5.3"></path>
<path  stroke="#4e4e4e" stroke-linecap="butt" stroke-miterlimit="10" stroke-width="0.6662" d="M14.036 15.138v-7.033c0-3.278-2.097-6.235-5.233-7.198-1.064-0.327-2.183-0.465-3.243-0.225-3.173 0.715-4.977 3.872-4.998 12.581-0.023 8.926 3.019 14.262 6.097 17.824 1.013 1.174 5.704-7.234 5.726-11.807 0-1.478-0.952-1.747-1.204-2.621-0.425-1.473 0.059-2.986 0.914-3.056 0.681-0.056 1.676 1.159 1.941 1.536zM14.036 15.138c-0.001 0.008-0.005 0.016-0.011 0.022s0.011-0.619 0.011-0.619"></path>
<path  d="M14.104 7.726c0 0-1.519-3.389-3.931-3.491-4.908-0.21-6.357 7.405-5.845 9.473 0.954 3.841 3.617 4.232 2.743 4.655-2.39 1.155-1.664 4.461 0.349 5.417 2.535 1.209 4.282-1.313 4.498-1.638"></path>
</symbol>
<symbol id="icon-facebook" viewBox="0 0 32 32">
<path d="M32 16.097c0-8.836-7.164-16-16-16s-16 7.164-16 16c0 7.987 5.851 14.605 13.5 15.805v-11.18h-4.063v-4.627h4.063v-3.523c0-4.009 2.389-6.225 6.044-6.225 1.749 0 3.581 0.313 3.581 0.313v3.937h-2.019c-1.988 0-2.608 1.233-2.608 2.499v3h4.437l-0.709 4.627h-3.728v11.18c7.651-1.201 13.501-7.821 13.501-15.807z"></path>
</symbol>
<symbol id="icon-viber" viewBox="0 0 32 32">
<path d="M15.2 0c-2.569 0.037-8.089 0.459-11.173 3.289-2.291 2.293-3.099 5.644-3.183 9.8-0.084 4.155-0.193 11.945 7.316 14.057h0.004l-0.005 3.221s-0.049 1.303 0.813 1.569c1.036 0.323 1.645-0.667 2.64-1.736 0.543-0.587 1.296-1.445 1.863-2.107 5.133 0.435 9.083-0.555 9.533-0.7 1.035-0.336 6.901-1.088 7.856-8.876 0.987-8.027-0.48-13.107-3.12-15.395-0.795-0.733-4.008-3.067-11.167-3.097 0 0-0.527-0.033-1.383-0.023zM15.277 2.257c0.727-0.005 1.173 0.023 1.173 0.023 6.056 0.027 8.956 1.851 9.629 2.461 2.233 1.913 3.373 6.491 2.541 13.196v0.003c-0.805 6.504-5.565 6.912-6.443 7.193-0.373 0.12-3.843 0.983-8.204 0.699 0 0-3.248 3.92-4.263 4.939-0.16 0.16-0.347 0.223-0.469 0.192-0.173-0.044-0.221-0.251-0.22-0.552l0.027-5.357c-6.349-1.76-5.98-8.389-5.907-11.86 0.072-3.472 0.724-6.317 2.661-8.231 2.613-2.364 7.299-2.691 9.48-2.707zM15.784 5.727c-0.223 0-0.404 0.18-0.405 0.403 0 0.223 0.177 0.404 0.4 0.407 2.165 0.013 3.928 0.716 5.371 2.123 1.431 1.395 2.16 3.291 2.177 5.779 0.003 0.223 0.187 0.4 0.409 0.4 0.221-0.003 0.4-0.184 0.4-0.405-0.019-2.645-0.824-4.795-2.421-6.352-1.587-1.547-3.589-2.337-5.929-2.353zM10.504 6.653c-0.253-0.043-0.533 0.007-0.821 0.156l-0.013 0.003c-0.573 0.329-1.088 0.749-1.528 1.243-0.003 0.005-0.008 0.005-0.011 0.011-0.356 0.431-0.56 0.851-0.613 1.264-0.011 0.061-0.013 0.124-0.009 0.187 0 0.181 0.029 0.36 0.087 0.533l0.017 0.013c0.18 0.64 0.631 1.701 1.607 3.472 0.56 1.024 1.204 2 1.928 2.915 0.36 0.459 0.747 0.897 1.16 1.312l0.176 0.176c0.413 0.411 0.853 0.8 1.312 1.16 0.915 0.724 1.891 1.369 2.915 1.929 1.771 0.977 2.835 1.427 3.472 1.608l0.013 0.019c0.173 0.056 0.353 0.085 0.536 0.084 0.061 0.003 0.123 0 0.184-0.011 0.413-0.048 0.836-0.253 1.264-0.613 0.005 0 0.004-0.003 0.011-0.007 0.493-0.44 0.911-0.96 1.24-1.531l0.004-0.013c0.3-0.576 0.2-1.123-0.24-1.493-0.005 0-0.931-0.773-1.383-1.107-0.48-0.34-0.973-0.656-1.484-0.947-0.68-0.38-1.376-0.141-1.664 0.232l-0.596 0.752c-0.307 0.377-0.876 0.328-0.876 0.328-4.16-1.061-5.273-5.273-5.273-5.273s-0.049-0.568 0.331-0.875l0.751-0.597c0.369-0.287 0.608-0.983 0.227-1.664-0.289-0.511-0.605-1.008-0.947-1.487-0.333-0.453-1.101-1.377-1.107-1.38-0.183-0.22-0.413-0.353-0.669-0.396zM16.491 7.827c-0.211 0.003-0.387 0.165-0.4 0.376-0.013 0.223 0.153 0.416 0.376 0.432 1.547 0.113 2.689 0.621 3.527 1.533 0.84 0.917 1.24 2.032 1.208 3.427-0.003 0.224 0.173 0.408 0.4 0.413 0.221 0.004 0.407-0.173 0.413-0.396 0.033-1.567-0.445-2.924-1.423-3.992-0.987-1.080-2.369-1.671-4.067-1.795h-0.032zM17.108 10c-0.213 0.003-0.387 0.169-0.4 0.383-0.011 0.223 0.16 0.413 0.384 0.427 0.697 0.037 1.167 0.233 1.484 0.563 0.32 0.327 0.517 0.827 0.555 1.552 0.013 0.223 0.2 0.393 0.424 0.383 0.223-0.011 0.393-0.2 0.383-0.423-0.040-0.859-0.287-1.571-0.773-2.076-0.489-0.504-1.191-0.765-2.027-0.809h-0.024z"></path>
</symbol>
<symbol id="icon-instagram" viewBox="0 0 32 32">
<path d="M26.461 7.459c0 0.252-0.050 0.502-0.146 0.735s-0.238 0.445-0.416 0.623c-0.178 0.178-0.39 0.32-0.623 0.416s-0.483 0.146-0.735 0.146c-0.252 0-0.502-0.050-0.735-0.146s-0.445-0.238-0.623-0.416c-0.178-0.178-0.32-0.39-0.416-0.623s-0.146-0.483-0.146-0.735c0-0.509 0.202-0.998 0.562-1.358s0.848-0.562 1.358-0.562 0.998 0.202 1.358 0.562c0.36 0.36 0.562 0.848 0.562 1.358zM16 21.333c-1.414 0-2.771-0.562-3.771-1.562s-1.562-2.356-1.562-3.771c0-1.414 0.562-2.771 1.562-3.771s2.357-1.562 3.771-1.562c1.414 0 2.771 0.562 3.771 1.562s1.562 2.357 1.562 3.771c0 1.414-0.562 2.771-1.562 3.771s-2.356 1.562-3.771 1.562zM16 7.784c-2.179 0-4.269 0.866-5.81 2.406s-2.406 3.631-2.406 5.81c0 2.179 0.866 4.269 2.406 5.81s3.631 2.406 5.81 2.406c2.179 0 4.269-0.866 5.81-2.406s2.406-3.631 2.406-5.81c0-2.179-0.866-4.269-2.406-5.81s-3.631-2.406-5.81-2.406zM16 2.883c4.272 0 4.778 0.016 6.464 0.093 1.562 0.072 2.408 0.331 2.973 0.552 0.746 0.288 1.28 0.637 1.84 1.197s0.906 1.093 1.197 1.84c0.218 0.563 0.48 1.41 0.55 2.97 0.077 1.688 0.093 2.194 0.093 6.466s-0.016 4.779-0.093 6.466c-0.070 1.56-0.331 2.408-0.55 2.971-0.291 0.747-0.637 1.28-1.197 1.84s-1.094 0.906-1.84 1.197c-0.565 0.219-1.411 0.48-2.971 0.55-1.688 0.077-2.192 0.094-6.466 0.094-4.272 0-4.779-0.016-6.464-0.094-1.562-0.070-2.41-0.331-2.973-0.55-0.695-0.256-1.324-0.665-1.84-1.197-0.531-0.516-0.94-1.145-1.197-1.84-0.219-0.563-0.48-1.411-0.55-2.971-0.077-1.686-0.093-2.192-0.093-6.464s0.016-4.779 0.093-6.467c0.070-1.56 0.331-2.406 0.55-2.971 0.291-0.746 0.637-1.28 1.197-1.84s1.093-0.906 1.84-1.197c0.563-0.218 1.411-0.48 2.971-0.55 1.688-0.077 2.192-0.093 6.466-0.093zM16 0c-4.346 0-4.89 0.019-6.597 0.096-1.702 0.078-2.866 0.349-3.883 0.744-1.068 0.401-2.036 1.031-2.835 1.845-0.814 0.8-1.443 1.767-1.845 2.835-0.395 1.018-0.666 2.181-0.744 3.883-0.077 1.707-0.096 2.251-0.096 6.597s0.019 4.89 0.096 6.597c0.078 1.702 0.349 2.866 0.744 3.883 0.401 1.068 1.031 2.036 1.845 2.835 0.8 0.814 1.767 1.443 2.835 1.845 1.018 0.395 2.181 0.666 3.883 0.744 1.707 0.077 2.251 0.096 6.597 0.096s4.89-0.019 6.597-0.096c1.702-0.078 2.866-0.349 3.883-0.744 1.068-0.401 2.036-1.031 2.835-1.845 0.814-0.8 1.443-1.767 1.845-2.835 0.395-1.018 0.666-2.181 0.744-3.883 0.077-1.707 0.096-2.251 0.096-6.597s-0.019-4.89-0.096-6.597c-0.078-1.702-0.349-2.866-0.744-3.883-0.401-1.068-1.031-2.036-1.845-2.835-0.8-0.814-1.767-1.443-2.835-1.845-1.018-0.395-2.181-0.666-3.883-0.744-1.707-0.077-2.251-0.096-6.597-0.096z"></path>
</symbol>
<symbol id="icon-telegram" viewBox="0 0 32 32">
<path d="M2.19 14.229c8.584-3.728 14.299-6.206 17.168-7.408 8.168-3.408 9.885-3.998 10.989-4.022 0.246 0 0.784 0.048 1.152 0.344 0.296 0.245 0.368 0.563 0.418 0.81 0.050 0.245 0.099 0.76 0.050 1.152-0.442 4.661-2.355 15.968-3.336 21.168-0.416 2.208-1.226 2.942-2.011 3.016-1.717 0.147-3.016-1.128-4.661-2.208-2.6-1.691-4.046-2.747-6.573-4.414-2.918-1.914-1.030-2.968 0.638-4.685 0.442-0.442 7.971-7.309 8.118-7.922 0.024-0.074 0.024-0.368-0.147-0.515s-0.416-0.099-0.613-0.050c-0.27 0.048-4.39 2.797-12.411 8.216-1.178 0.81-2.232 1.203-3.189 1.178-1.056-0.024-3.066-0.589-4.587-1.078-1.84-0.589-3.312-0.907-3.187-1.938 0.072-0.541 0.808-1.080 2.182-1.643z"></path>
</symbol>
<symbol id="icon-star" viewBox="0 0 32 32">
<path d="M13.764 0.009l2.978 11.217 6.807-9.399-4.184 10.825 11.032-3.603-9.748 6.298 11.043 3.57-11.588-0.634 6.836 9.379-9.002-7.324 0.017 11.605-2.978-11.217-6.807 9.399 4.184-10.825-11.032 3.603 9.748-6.298-11.043-3.57 11.588 0.634-6.836-9.379 9.002 7.324-0.018-11.605z"></path>
</symbol>
 <symbol id="icon-menu" viewBox="0 0 32 32">
<path d="M6.4 11.734v-2.134h19.2v2.134h-19.2zM6.4 17.066h19.2v-2.133h-19.2v2.133zM6.4 22.4h19.2v-2.134h-19.2v2.134z"></path>
</symbol>
<symbol id="icon-close" viewBox="0 0 32 32">
<path d="M32 3.223l-3.223-3.223-12.777 12.777-12.777-12.777-3.223 3.223 12.777 12.777-12.777 12.777 3.223 3.223 12.777-12.777 12.777 12.777 3.223-3.223-12.777-12.777 12.777-12.777z"></path>
</symbol>
</defs>
</svg>
